<svg width="1765" height="52" viewBox="0 0 1765 52" fill="none" xmlns="http://www.w3.org/2000/svg">
<path d="M1764.16 11.9547C1764.68 11.3158 1764.59 10.3704 1763.95 9.84308L1753.54 1.2504C1752.9 0.723115 1751.96 0.813635 1751.43 1.45258C1750.9 2.09154 1750.99 3.03696 1751.63 3.56425L1760.89 11.2022L1753.25 20.4576C1752.72 21.0965 1752.81 22.0419 1753.45 22.5692C1754.09 23.0965 1755.04 23.006 1755.56 22.367L1764.16 11.9547ZM1678 50.5V52H1678.59L1679.02 51.6033L1678 50.5ZM1716 15.5L1715.86 14.0068L1715.35 14.0549L1714.98 14.3967L1716 15.5ZM0.5 52H1678V49H0.5V52ZM1679.02 51.6033L1717.02 16.6033L1714.98 14.3967L1676.98 49.3967L1679.02 51.6033ZM1716.14 16.9932L1763.14 12.4932L1762.86 9.50683L1715.86 14.0068L1716.14 16.9932Z" fill="#E74413"/>
</svg>
