<svg width="28" height="28" viewBox="0 0 28 28" fill="none" xmlns="http://www.w3.org/2000/svg">
<path d="M25.0829 0.388672H3.69401C2.92046 0.388672 2.1786 0.695963 1.63162 1.24294C1.08463 1.78992 0.777344 2.53179 0.777344 3.30534L0.777344 24.6942C0.777344 25.4678 1.08463 26.2096 1.63162 26.7566C2.1786 27.3036 2.92046 27.6109 3.69401 27.6109H12.0339V18.3559H8.20573V13.9998H12.0339V10.6796C12.0339 6.90317 14.2821 4.81714 17.7256 4.81714C19.3747 4.81714 21.0992 5.11124 21.0992 5.11124V8.81784H19.1991C17.327 8.81784 16.7431 9.97964 16.7431 11.1712V13.9998H20.9224L20.254 18.3559H16.7431V27.6109H25.0829C25.8564 27.6109 26.5983 27.3036 27.1453 26.7566C27.6923 26.2096 27.9996 25.4678 27.9996 24.6942V3.30534C27.9996 2.53179 27.6923 1.78992 27.1453 1.24294C26.5983 0.695963 25.8564 0.388672 25.0829 0.388672Z" fill="#FFFAF4"/>
</svg>
