<svg width="28" height="28" viewBox="0 0 28 28" fill="none" xmlns="http://www.w3.org/2000/svg">
<path d="M14.3885 10.7586C13.7475 10.7589 13.1209 10.9492 12.5881 11.3055C12.0553 11.6617 11.64 12.168 11.3949 12.7603C11.1498 13.3526 11.0857 14.0042 11.2109 14.6328C11.3361 15.2615 11.6449 15.8389 12.0983 16.292C12.5516 16.7452 13.1291 17.0538 13.7578 17.1787C14.3865 17.3037 15.0381 17.2394 15.6303 16.9941C16.2224 16.7487 16.7286 16.3333 17.0847 15.8003C17.4408 15.2674 17.6308 14.6408 17.6308 13.9998C17.6302 13.1402 17.2883 12.316 16.6804 11.7082C16.0724 11.1005 15.2481 10.759 14.3885 10.7586ZM21.9663 8.26732C21.8013 7.84916 21.5522 7.46938 21.2343 7.15151C20.9164 6.83365 20.5366 6.58449 20.1185 6.41949C18.8424 5.91575 15.8042 6.02877 14.3885 6.02877C12.9727 6.02877 9.9375 5.9115 8.65781 6.41949C8.23966 6.58449 7.85987 6.83365 7.54201 7.15151C7.22414 7.46938 6.97498 7.84916 6.80998 8.26732C6.30686 9.54336 6.41927 12.5846 6.41927 13.9992C6.41927 15.4138 6.30686 18.4513 6.81241 19.7316C6.97741 20.1498 7.22657 20.5296 7.54444 20.8474C7.8623 21.1653 8.24209 21.4145 8.66024 21.5795C9.93628 22.0832 12.9745 21.9702 14.3909 21.9702C15.8073 21.9702 18.8412 22.0874 20.1209 21.5795C20.5391 21.4145 20.9189 21.1653 21.2367 20.8474C21.5546 20.5296 21.8037 20.1498 21.9687 19.7316C22.4761 18.4556 22.3595 15.4144 22.3595 13.9998C22.3595 12.5852 22.4761 9.54822 21.9687 8.26792L21.9663 8.26732ZM14.3885 18.9824C13.403 18.9824 12.4396 18.6902 11.6202 18.1427C10.8009 17.5952 10.1622 16.817 9.78509 15.9066C9.40797 14.9961 9.3093 13.9943 9.50155 13.0277C9.69381 12.0612 10.1684 11.1734 10.8652 10.4765C11.562 9.77969 12.4498 9.30514 13.4164 9.11288C14.3829 8.92062 15.3848 9.0193 16.2952 9.39642C17.2057 9.77355 17.9839 10.4122 18.5314 11.2316C19.0789 12.051 19.3711 13.0143 19.3711 13.9998C19.3719 14.6543 19.2436 15.3026 18.9934 15.9075C18.7433 16.5124 18.3763 17.062 17.9135 17.5248C17.4507 17.9877 16.9011 18.3546 16.2962 18.6048C15.6913 18.8549 15.043 18.9832 14.3885 18.9824ZM19.5765 9.97113C19.3464 9.97125 19.1215 9.90315 18.9302 9.77542C18.7388 9.6477 18.5897 9.46611 18.5015 9.2536C18.4134 9.0411 18.3903 8.80724 18.4351 8.58159C18.4799 8.35595 18.5906 8.14866 18.7533 7.98595C18.9159 7.82324 19.1231 7.71241 19.3487 7.66748C19.5744 7.62256 19.8082 7.64556 20.0208 7.73356C20.2333 7.82157 20.415 7.97064 20.5428 8.16191C20.6707 8.35318 20.7389 8.57806 20.7389 8.80811C20.7395 8.96088 20.71 9.11227 20.652 9.2536C20.594 9.39494 20.5087 9.52343 20.4009 9.6317C20.2931 9.73998 20.165 9.82592 20.024 9.88458C19.8829 9.94325 19.7317 9.97349 19.5789 9.97357L19.5765 9.97113ZM25.0829 0.388672H3.69401C2.92046 0.388672 2.1786 0.695963 1.63162 1.24294C1.08463 1.78992 0.777344 2.53179 0.777344 3.30534L0.777344 24.6942C0.777344 25.4678 1.08463 26.2096 1.63162 26.7566C2.1786 27.3036 2.92046 27.6109 3.69401 27.6109H25.0829C25.8564 27.6109 26.5983 27.3036 27.1453 26.7566C27.6923 26.2096 27.9996 25.4678 27.9996 24.6942V3.30534C27.9996 2.53179 27.6923 1.78992 27.1453 1.24294C26.5983 0.695963 25.8564 0.388672 25.0829 0.388672ZM24.0426 18.0102C23.9642 19.5676 23.6088 20.9475 22.4719 22.0814C21.335 23.2152 19.9562 23.578 18.4007 23.6521C16.7959 23.7427 11.9846 23.7427 10.3799 23.6521C8.82248 23.5737 7.44739 23.2177 6.30868 22.0814C5.16996 20.9451 4.81206 19.5645 4.73793 18.0102C4.64739 16.4048 4.64739 11.5929 4.73793 9.98936C4.81632 8.43198 5.16753 7.05204 6.30868 5.91818C7.44982 4.78433 8.82856 4.42582 10.3799 4.35169C11.9846 4.26115 16.7959 4.26115 18.4007 4.35169C19.9581 4.43008 21.3374 4.78615 22.4719 5.92244C23.6063 7.05872 23.9685 8.43928 24.0426 9.99665C24.1332 11.596 24.1332 16.4036 24.0426 18.0102Z" fill="#FFFAF4"/>
</svg>
