<svg width="28" height="28" viewBox="0 0 28 28" fill="none" xmlns="http://www.w3.org/2000/svg">
<path d="M25.2778 0.388672H1.93837C0.868923 0.388672 0 1.26975 0 2.35135V25.6482C0 26.7298 0.868923 27.6109 1.93837 27.6109H25.2778C26.3472 27.6109 27.2222 26.7298 27.2222 25.6482V2.35135C27.2222 1.26975 26.3472 0.388672 25.2778 0.388672ZM8.22743 23.722H4.19271V10.7307H8.2335V23.722H8.22743ZM6.21007 8.95638C4.9158 8.95638 3.87066 7.90516 3.87066 6.61697C3.87066 5.32877 4.9158 4.27756 6.21007 4.27756C7.49826 4.27756 8.54948 5.32877 8.54948 6.61697C8.54948 7.91124 7.50434 8.95638 6.21007 8.95638ZM23.3516 23.722H19.3168V17.4026C19.3168 15.8956 19.2865 13.9572 17.2205 13.9572C15.1181 13.9572 14.796 15.5979 14.796 17.2932V23.722H10.7613V10.7307H14.6319V12.505H14.6866C15.2274 11.4842 16.546 10.4086 18.5087 10.4086C22.592 10.4086 23.3516 13.1005 23.3516 16.6005V23.722Z" fill="#FFFAF4"/>
</svg>
