<svg width="281" height="38" viewBox="0 0 281 38" fill="none" xmlns="http://www.w3.org/2000/svg">
<path d="M18.0018 0.339844H281L262.998 37.6387H0L18.0018 0.339844Z" fill="#00B8CC"/>
<path d="M266.133 8.26975H237.496C235.284 8.26975 233.27 9.53495 232.327 11.5179L227.795 21.0426L253.378 21.0698C253.873 21.0703 254.2 21.5801 253.991 22.0247C253.768 22.4968 253.29 22.7985 252.764 22.7985H226.966L222.937 31.3373L251.56 31.3515C253.775 31.3515 255.79 30.0831 256.732 28.0963L262.612 15.6049H236.716C236.381 15.6049 236.16 15.2591 236.303 14.9585L236.392 14.7722C236.656 14.2172 237.219 13.863 237.838 13.8626L263.484 13.849L266.133 8.26975Z" fill="#FFFAF4"/>
<path d="M232.044 8.26975H199.783L190.217 28.4451C189.576 29.7974 190.572 31.3515 192.079 31.3515H221.1L225.155 22.7985H199.479C198.976 22.7985 198.644 22.2797 198.859 21.8289L202.284 14.6287C202.51 14.1527 202.994 13.849 203.524 13.849H222.964C223.298 13.849 223.519 14.1925 223.378 14.4929L223.22 14.8318C222.995 15.3119 222.51 15.6191 221.976 15.6191H203.635L201.078 21.0567H225.952L229.398 13.849L232.044 8.26975Z" fill="#FFFAF4"/>
<path d="M194.714 8.26975H165.694L154.75 31.3515H160.289L168.196 14.6315C168.421 14.154 168.905 13.849 169.438 13.849H185.547C186.049 13.849 186.38 14.3661 186.168 14.8168L178.361 31.3515H187.01L196.576 11.1761C197.217 9.8238 196.222 8.26975 194.714 8.26975Z" fill="#FFFAF4"/>
<path fill-rule="evenodd" clip-rule="evenodd" d="M163.922 8.26975H131.662L122.096 28.4451C121.455 29.7974 122.45 31.3515 123.958 31.3515H149.35C151.564 31.3515 153.58 30.0831 154.522 28.0963L163.922 8.26975ZM135.403 13.849C134.872 13.849 134.389 14.1527 134.163 14.6287L130.737 21.8289C130.523 22.2797 130.855 22.7985 131.358 22.7985H150.622C151.153 22.7985 151.637 22.4941 151.863 22.0172L155.276 14.8178C155.49 14.367 155.158 13.849 154.656 13.849H135.403Z" fill="#FFFAF4"/>
<path d="M103.236 22.7985L99.1673 31.3798L115.295 31.3567C117.507 31.3535 119.518 30.0856 120.459 28.1015L129.862 8.26975L124.317 8.27771L117.802 22.0173C117.576 22.4941 117.093 22.7985 116.561 22.7985H103.236Z" fill="#FFFAF4"/>
<path d="M88.0375 25.7722H93.6238L91.0093 31.3515H85.423L88.0375 25.7722Z" fill="#FFFAF4"/>
<path fill-rule="evenodd" clip-rule="evenodd" d="M92.7151 8.26975H60.4546L50.8887 28.4451C50.2475 29.7974 51.2431 31.3515 52.7507 31.3515H78.1423C80.3571 31.3515 82.3725 30.0831 83.3145 28.0963L92.7151 8.26975ZM64.196 13.849C63.6651 13.849 63.1819 14.1527 62.9555 14.6287L59.5301 21.8289C59.3156 22.2797 59.6474 22.7985 60.1503 22.7985H79.4143C79.9459 22.7985 80.4296 22.4941 80.6556 22.0172L84.0692 14.8178C84.2829 14.367 83.951 13.849 83.4485 13.849H64.196Z" fill="#FFFAF4"/>
<path d="M58.6545 8.26975H26.394L16.8281 28.4451C16.1869 29.7974 17.1825 31.3515 18.6901 31.3515H47.7105L51.7658 22.7985H26.0897C25.5868 22.7985 25.255 22.2797 25.4694 21.8289L28.8948 14.6287C29.1213 14.1527 29.6045 13.849 30.1354 13.849H56.0091L58.6545 8.26975Z" fill="#FFFAF4"/>
</svg>
