<svg width="220" height="30" viewBox="0 0 220 30" fill="none" xmlns="http://www.w3.org/2000/svg">
<path d="M14.094 0H220L205.906 29.4631H0L14.094 0Z" fill="#FFFAF4"/>
<path d="M208.36 6.26398H185.94C184.208 6.26398 182.631 7.26338 181.893 8.82974L178.344 16.3535L198.374 16.375C198.762 16.3754 199.018 16.7781 198.854 17.1292C198.68 17.5022 198.305 17.7405 197.894 17.7405H177.696L174.541 24.4855L196.951 24.4967C198.685 24.4967 200.263 23.4947 201 21.9254L205.604 12.0582H185.33C185.067 12.0582 184.894 11.785 185.006 11.5476L185.075 11.4004C185.282 10.962 185.723 10.6822 186.208 10.6819L206.286 10.6711L208.36 6.26398Z" fill="#272A2B"/>
<path d="M181.671 6.26398H156.414L148.924 22.2008C148.422 23.2691 149.202 24.4967 150.382 24.4967H173.103L176.278 17.7405H156.176C155.782 17.7405 155.522 17.3307 155.69 16.9746L158.372 11.287C158.549 10.911 158.927 10.6711 159.343 10.6711H174.562C174.824 10.6711 174.997 10.9425 174.887 11.1797L174.763 11.4475C174.587 11.8267 174.207 12.0694 173.789 12.0694H159.43L157.427 16.3647H176.902L179.6 10.6711L181.671 6.26398Z" fill="#272A2B"/>
<path d="M152.445 6.26398H129.725L121.157 24.4967H125.493L131.683 11.2892C131.86 10.9121 132.239 10.6711 132.656 10.6711H145.268C145.661 10.6711 145.921 11.0796 145.754 11.4356L139.642 24.4967H146.414L153.903 8.5598C154.405 7.49155 153.626 6.26398 152.445 6.26398Z" fill="#272A2B"/>
<path fill-rule="evenodd" clip-rule="evenodd" d="M128.338 6.26398H103.08L95.5911 22.2008C95.0891 23.2691 95.8686 24.4967 97.0489 24.4967H116.928C118.662 24.4967 120.24 23.4947 120.978 21.9254L128.338 6.26398ZM106.01 10.6711C105.594 10.6711 105.216 10.911 105.038 11.287L102.357 16.9746C102.189 17.3307 102.448 17.7405 102.842 17.7405H117.924C118.341 17.7405 118.719 17.5 118.896 17.1234L121.569 11.4364C121.736 11.0803 121.476 10.6711 121.083 10.6711H106.01Z" fill="#272A2B"/>
<path d="M80.8254 17.7405L77.6399 24.519L90.2665 24.5008C91.9981 24.4983 93.5729 23.4967 94.3094 21.9295L101.671 6.26398L97.3301 6.27027L92.2297 17.1234C92.0527 17.5 91.674 17.7405 91.2578 17.7405H80.8254Z" fill="#272A2B"/>
<path d="M68.9262 20.0895H73.2998L71.2528 24.4967H66.8792L68.9262 20.0895Z" fill="#272A2B"/>
<path fill-rule="evenodd" clip-rule="evenodd" d="M72.5883 6.26398H47.331L39.8417 22.2008C39.3397 23.2691 40.1192 24.4967 41.2995 24.4967H61.179C62.913 24.4967 64.4909 23.4947 65.2284 21.9254L72.5883 6.26398ZM50.2602 10.6711C49.8446 10.6711 49.4662 10.911 49.289 11.287L46.6072 16.9746C46.4392 17.3307 46.6991 17.7405 47.0928 17.7405H62.1749C62.5911 17.7405 62.9698 17.5 63.1468 17.1234L65.8193 11.4364C65.9866 11.0803 65.7268 10.6711 65.3333 10.6711H50.2602Z" fill="#272A2B"/>
<path d="M45.9216 6.26398H20.6644L13.175 22.2008C12.673 23.2691 13.4525 24.4967 14.6328 24.4967H37.3534L40.5284 17.7405H20.4261C20.0324 17.7405 19.7726 17.3307 19.9405 16.9746L22.6223 11.287C22.7996 10.911 23.1779 10.6711 23.5936 10.6711H43.8505L45.9216 6.26398Z" fill="#272A2B"/>
</svg>
